<svg width="250" height="408" viewBox="0 0 250 408" fill="none" xmlns="http://www.w3.org/2000/svg">
<g clip-path="url(#clip0_40_2367)">
<path d="M186.388 407.545H172.072V392.99H186.388V407.545Z" fill="#FCF9F9" fill-opacity="0.1"/>
<path d="M100.494 407.545H86.1777V392.99H100.494V407.545Z" fill="#FCF9F9" fill-opacity="0.1"/>
<path d="M86.1771 407.545H71.8613V392.99H86.1771V407.545Z" fill="#FCF9F9" fill-opacity="0.1"/>
<path d="M71.8617 407.545H57.5459V392.99H71.8617V407.545Z" fill="#FCF9F9" fill-opacity="0.1"/>
<path d="M14.599 407.545H0.283203V392.99H14.599V407.545Z" fill="#FCF9F9" fill-opacity="0.1"/>
<path d="M257.964 392.99H243.648V378.435H257.964V392.99Z" fill="#FCF9F9" fill-opacity="0.1"/>
<path d="M200.703 392.99H186.388V378.435H200.703V392.99Z" fill="#FCF9F9" fill-opacity="0.1"/>
<path d="M186.388 392.99H172.072V378.435H186.388V392.99Z" fill="#FCF9F9" fill-opacity="0.1"/>
<path d="M86.1771 392.99H71.8613V378.435H86.1771V392.99Z" fill="#FCF9F9" fill-opacity="0.1"/>
<path d="M71.8617 392.99H57.5459V378.435H71.8617V392.99Z" fill="#FCF9F9" fill-opacity="0.1"/>
<path d="M57.5463 392.99H43.2305V378.435H57.5463V392.99Z" fill="#FCF9F9" fill-opacity="0.1"/>
<path d="M257.964 378.435H243.648V363.88H257.964V378.435Z" fill="#FCF9F9" fill-opacity="0.1"/>
<path d="M243.647 378.435H229.331V363.88H243.647V378.435Z" fill="#FCF9F9" fill-opacity="0.1"/>
<path d="M215.02 378.435H200.704V363.88H215.02V378.435Z" fill="#FCF9F9" fill-opacity="0.1"/>
<path d="M200.703 378.435H186.388V363.88H200.703V378.435Z" fill="#FCF9F9" fill-opacity="0.1"/>
<path d="M186.388 378.435H172.072V363.88H186.388V378.435Z" fill="#FCF9F9" fill-opacity="0.1"/>
<path d="M71.8617 378.435H57.5459V363.88H71.8617V378.435Z" fill="#FCF9F9" fill-opacity="0.1"/>
<path d="M57.5463 378.435H43.2305V363.88H57.5463V378.435Z" fill="#FCF9F9" fill-opacity="0.1"/>
<path d="M43.2298 378.435H28.9141V363.88H43.2298V378.435Z" fill="#FCF9F9" fill-opacity="0.1"/>
<path d="M257.964 363.88H243.648V349.324H257.964V363.88Z" fill="#FCF9F9" fill-opacity="0.1"/>
<path d="M243.647 363.88H229.331V349.324H243.647V363.88Z" fill="#FCF9F9" fill-opacity="0.1"/>
<path d="M215.02 363.88H200.704V349.324H215.02V363.88Z" fill="#FCF9F9" fill-opacity="0.1"/>
<path d="M200.703 363.88H186.388V349.324H200.703V363.88Z" fill="#FCF9F9" fill-opacity="0.1"/>
<path d="M157.756 363.88H143.44V349.324H157.756V363.88Z" fill="#FCF9F9" fill-opacity="0.1"/>
<path d="M143.441 363.88H129.125V349.324H143.441V363.88Z" fill="#FCF9F9" fill-opacity="0.1"/>
<path d="M129.124 363.88H114.809V349.324H129.124V363.88Z" fill="#FCF9F9" fill-opacity="0.1"/>
<path d="M57.5463 363.88H43.2305V349.324H57.5463V363.88Z" fill="#FCF9F9" fill-opacity="0.1"/>
<path d="M43.2298 363.88H28.9141V349.324H43.2298V363.88Z" fill="#FCF9F9" fill-opacity="0.1"/>
<path d="M28.9144 363.88H14.5986V349.324H28.9144V363.88Z" fill="#FCF9F9" fill-opacity="0.1"/>
<path d="M243.647 349.324H229.331V334.769H243.647V349.324Z" fill="#FCF9F9" fill-opacity="0.1"/>
<path d="M215.02 349.324H200.704V334.769H215.02V349.324Z" fill="#FCF9F9" fill-opacity="0.1"/>
<path d="M172.073 349.324H157.757V334.769H172.073V349.324Z" fill="#FCF9F9" fill-opacity="0.1"/>
<path d="M157.756 349.324H143.44V334.769H157.756V349.324Z" fill="#FCF9F9" fill-opacity="0.1"/>
<path d="M143.441 349.324H129.125V334.769H143.441V349.324Z" fill="#FCF9F9" fill-opacity="0.1"/>
<path d="M43.2298 349.324H28.9141V334.769H43.2298V349.324Z" fill="#FCF9F9" fill-opacity="0.1"/>
<path d="M28.9144 349.324H14.5986V334.769H28.9144V349.324Z" fill="#FCF9F9" fill-opacity="0.1"/>
<path d="M14.599 349.324H0.283203V334.769H14.599V349.324Z" fill="#FCF9F9" fill-opacity="0.1"/>
<path d="M186.388 334.769H172.072V320.214H186.388V334.769Z" fill="#FCF9F9" fill-opacity="0.1"/>
<path d="M172.073 334.769H157.757V320.214H172.073V334.769Z" fill="#FCF9F9" fill-opacity="0.1"/>
<path d="M157.756 334.769H143.44V320.214H157.756V334.769Z" fill="#FCF9F9" fill-opacity="0.1"/>
<path d="M28.9144 334.769H14.5986V320.214H28.9144V334.769Z" fill="#FCF9F9" fill-opacity="0.1"/>
<path d="M14.599 334.769H0.283203V320.214H14.599V334.769Z" fill="#FCF9F9" fill-opacity="0.1"/>
<path d="M243.647 320.214H229.331V305.659H243.647V320.214Z" fill="#FCF9F9" fill-opacity="0.1"/>
<path d="M215.02 320.214H200.704V305.659H215.02V320.214Z" fill="#FCF9F9" fill-opacity="0.1"/>
<path d="M86.1771 320.214H71.8613V305.659H86.1771V320.214Z" fill="#FCF9F9" fill-opacity="0.1"/>
<path d="M14.599 320.214H0.283203V305.659H14.599V320.214Z" fill="#FCF9F9" fill-opacity="0.1"/>
<path d="M257.964 305.659H243.648V291.104H257.964V305.659Z" fill="#FCF9F9" fill-opacity="0.1"/>
<path d="M243.647 305.659H229.331V291.104H243.647V305.659Z" fill="#FCF9F9" fill-opacity="0.1"/>
<path d="M215.02 305.659H200.704V291.104H215.02V305.659Z" fill="#FCF9F9" fill-opacity="0.1"/>
<path d="M200.703 305.659H186.388V291.104H200.703V305.659Z" fill="#FCF9F9" fill-opacity="0.1"/>
<path d="M100.494 305.659H86.1777V291.104H100.494V305.659Z" fill="#FCF9F9" fill-opacity="0.1"/>
<path d="M86.1771 305.659H71.8613V291.104H86.1771V305.659Z" fill="#FCF9F9" fill-opacity="0.1"/>
<path d="M257.964 291.104H243.648V276.549H257.964V291.104Z" fill="#FCF9F9" fill-opacity="0.1"/>
<path d="M200.703 291.104H186.388V276.549H200.703V291.104Z" fill="#FCF9F9" fill-opacity="0.1"/>
<path d="M186.388 291.104H172.072V276.549H186.388V291.104Z" fill="#FCF9F9" fill-opacity="0.1"/>
<path d="M114.809 291.104H100.493V276.549H114.809V291.104Z" fill="#FCF9F9" fill-opacity="0.1"/>
<path d="M100.494 291.104H86.1777V276.549H100.494V291.104Z" fill="#FCF9F9" fill-opacity="0.1"/>
<path d="M86.1771 291.104H71.8613V276.549H86.1771V291.104Z" fill="#FCF9F9" fill-opacity="0.1"/>
<path d="M186.388 276.549H172.072V261.993H186.388V276.549Z" fill="#FCF9F9" fill-opacity="0.1"/>
<path d="M172.073 276.549H157.757V261.993H172.073V276.549Z" fill="#FCF9F9" fill-opacity="0.1"/>
<path d="M114.809 276.549H100.493V261.993H114.809V276.549Z" fill="#FCF9F9" fill-opacity="0.1"/>
<path d="M100.494 276.549H86.1777V261.993H100.494V276.549Z" fill="#FCF9F9" fill-opacity="0.1"/>
<path d="M172.073 261.993H157.757V247.438H172.073V261.993Z" fill="#FCF9F9" fill-opacity="0.1"/>
<path d="M157.756 261.993H143.44V247.438H157.756V261.993Z" fill="#FCF9F9" fill-opacity="0.1"/>
<path d="M114.809 261.993H100.493V247.438H114.809V261.993Z" fill="#FCF9F9" fill-opacity="0.1"/>
<path d="M71.8617 261.993H57.5459V247.438H71.8617V261.993Z" fill="#FCF9F9" fill-opacity="0.1"/>
<path d="M57.5463 261.993H43.2305V247.438H57.5463V261.993Z" fill="#FCF9F9" fill-opacity="0.1"/>
<path d="M43.2298 261.993H28.9141V247.438H43.2298V261.993Z" fill="#FCF9F9" fill-opacity="0.1"/>
<path d="M157.756 247.438H143.44V232.883H157.756V247.438Z" fill="#FCF9F9" fill-opacity="0.1"/>
<path d="M143.441 247.438H129.125V232.883H143.441V247.438Z" fill="#FCF9F9" fill-opacity="0.1"/>
<path d="M86.1771 247.438H71.8613V232.883H86.1771V247.438Z" fill="#FCF9F9" fill-opacity="0.1"/>
<path d="M71.8617 247.438H57.5459V232.883H71.8617V247.438Z" fill="#FCF9F9" fill-opacity="0.1"/>
<path d="M57.5463 247.438H43.2305V232.883H57.5463V247.438Z" fill="#FCF9F9" fill-opacity="0.1"/>
<path d="M229.335 232.883H215.02V218.328H229.335V232.883Z" fill="#FCF9F9" fill-opacity="0.1"/>
<path d="M143.441 232.883H129.125V218.328H143.441V232.883Z" fill="#FCF9F9" fill-opacity="0.1"/>
<path d="M129.124 232.883H114.809V218.328H129.124V232.883Z" fill="#FCF9F9" fill-opacity="0.1"/>
<path d="M100.494 232.883H86.1777V218.328H100.494V232.883Z" fill="#FCF9F9" fill-opacity="0.1"/>
<path d="M86.1771 232.883H71.8613V218.328H86.1771V232.883Z" fill="#FCF9F9" fill-opacity="0.1"/>
<path d="M71.8617 232.883H57.5459V218.328H71.8617V232.883Z" fill="#FCF9F9" fill-opacity="0.1"/>
<path d="M14.3158 218.328H0V203.772H14.3158V218.328Z" fill="#FCF9F9" fill-opacity="0.1"/>
<path d="M28.9144 218.328H14.5986V203.772H28.9144V218.328Z" fill="#FCF9F9" fill-opacity="0.1"/>
<path d="M14.3158 232.883H0V218.328H14.3158V232.883Z" fill="#FCF9F9" fill-opacity="0.1"/>
<path d="M14.3158 203.773H0V189.218H14.3158V203.773Z" fill="#FCF9F9" fill-opacity="0.1"/>
<path d="M243.647 218.328H229.331V203.772H243.647V218.328Z" fill="#FCF9F9" fill-opacity="0.1"/>
<path d="M229.335 218.328H215.02V203.772H229.335V218.328Z" fill="#FCF9F9" fill-opacity="0.1"/>
<path d="M215.02 218.328H200.704V203.772H215.02V218.328Z" fill="#FCF9F9" fill-opacity="0.1"/>
<path d="M229.335 203.773H215.02V189.218H229.335V203.773Z" fill="#FCF9F9" fill-opacity="0.1"/>
<path d="M143.441 203.773H129.125V189.218H143.441V203.773Z" fill="#FCF9F9" fill-opacity="0.1"/>
<path d="M129.124 203.773H114.809V189.218H129.124V203.773Z" fill="#FCF9F9" fill-opacity="0.1"/>
<path d="M100.494 203.773H86.1777V189.218H100.494V203.773Z" fill="#FCF9F9" fill-opacity="0.1"/>
<path d="M86.1771 203.773H71.8613V189.218H86.1771V203.773Z" fill="#FCF9F9" fill-opacity="0.1"/>
<path d="M71.8617 203.773H57.5459V189.218H71.8617V203.773Z" fill="#FCF9F9" fill-opacity="0.1"/>
<path d="M157.756 189.218H143.44V174.662H157.756V189.218Z" fill="#FCF9F9" fill-opacity="0.1"/>
<path d="M143.441 189.217H129.125V174.662H143.441V189.217Z" fill="#FCF9F9" fill-opacity="0.1"/>
<path d="M86.1771 189.217H71.8613V174.662H86.1771V189.217Z" fill="#FCF9F9" fill-opacity="0.1"/>
<path d="M71.8617 189.217H57.5459V174.662H71.8617V189.217Z" fill="#FCF9F9" fill-opacity="0.1"/>
<path d="M57.5463 189.217H43.2305V174.662H57.5463V189.217Z" fill="#FCF9F9" fill-opacity="0.1"/>
<path d="M172.073 174.662H157.757V160.107H172.073V174.662Z" fill="#FCF9F9" fill-opacity="0.1"/>
<path d="M157.756 174.662H143.44V160.107H157.756V174.662Z" fill="#FCF9F9" fill-opacity="0.1"/>
<path d="M114.809 174.662H100.493V160.107H114.809V174.662Z" fill="#FCF9F9" fill-opacity="0.1"/>
<path d="M71.8617 174.662H57.5459V160.107H71.8617V174.662Z" fill="#FCF9F9" fill-opacity="0.1"/>
<path d="M57.5463 174.662H43.2305V160.107H57.5463V174.662Z" fill="#FCF9F9" fill-opacity="0.1"/>
<path d="M43.2298 174.662H28.9141V160.107H43.2298V174.662Z" fill="#FCF9F9" fill-opacity="0.1"/>
<path d="M186.388 160.107H172.072V145.552H186.388V160.107Z" fill="#FCF9F9" fill-opacity="0.1"/>
<path d="M172.073 160.107H157.757V145.552H172.073V160.107Z" fill="#FCF9F9" fill-opacity="0.1"/>
<path d="M114.809 160.107H100.493V145.552H114.809V160.107Z" fill="#FCF9F9" fill-opacity="0.1"/>
<path d="M100.494 160.107H86.1777V145.552H100.494V160.107Z" fill="#FCF9F9" fill-opacity="0.1"/>
<path d="M257.964 145.552H243.648V130.997H257.964V145.552Z" fill="#FCF9F9" fill-opacity="0.1"/>
<path d="M200.703 145.552H186.388V130.997H200.703V145.552Z" fill="#FCF9F9" fill-opacity="0.1"/>
<path d="M186.388 145.552H172.072V130.997H186.388V145.552Z" fill="#FCF9F9" fill-opacity="0.1"/>
<path d="M114.809 145.552H100.493V130.997H114.809V145.552Z" fill="#FCF9F9" fill-opacity="0.1"/>
<path d="M100.494 145.552H86.1777V130.997H100.494V145.552Z" fill="#FCF9F9" fill-opacity="0.1"/>
<path d="M86.1771 145.552H71.8613V130.997H86.1771V145.552Z" fill="#FCF9F9" fill-opacity="0.1"/>
<path d="M257.964 130.997H243.648V116.441H257.964V130.997Z" fill="#FCF9F9" fill-opacity="0.1"/>
<path d="M243.647 130.997H229.331V116.441H243.647V130.997Z" fill="#FCF9F9" fill-opacity="0.1"/>
<path d="M215.02 130.997H200.704V116.441H215.02V130.997Z" fill="#FCF9F9" fill-opacity="0.1"/>
<path d="M200.703 130.997H186.388V116.441H200.703V130.997Z" fill="#FCF9F9" fill-opacity="0.1"/>
<path d="M100.494 130.997H86.1777V116.441H100.494V130.997Z" fill="#FCF9F9" fill-opacity="0.1"/>
<path d="M86.1771 130.997H71.8613V116.441H86.1771V130.997Z" fill="#FCF9F9" fill-opacity="0.1"/>
<path d="M243.647 116.441H229.331V101.886H243.647V116.441Z" fill="#FCF9F9" fill-opacity="0.1"/>
<path d="M215.02 116.441H200.704V101.886H215.02V116.441Z" fill="#FCF9F9" fill-opacity="0.1"/>
<path d="M86.1771 116.441H71.8613V101.886H86.1771V116.441Z" fill="#FCF9F9" fill-opacity="0.1"/>
<path d="M14.599 101.886H0.283203V87.331H14.599V101.886Z" fill="#FCF9F9" fill-opacity="0.1"/>
<path d="M186.388 87.3311H172.072V72.7759H186.388V87.3311Z" fill="#FCF9F9" fill-opacity="0.1"/>
<path d="M172.073 87.3311H157.757V72.7759H172.073V87.3311Z" fill="#FCF9F9" fill-opacity="0.1"/>
<path d="M157.756 87.3311H143.44V72.7759H157.756V87.3311Z" fill="#FCF9F9" fill-opacity="0.1"/>
<path d="M28.9144 87.3311H14.5986V72.7759H28.9144V87.3311Z" fill="#FCF9F9" fill-opacity="0.1"/>
<path d="M14.599 87.3311H0.283203V72.7759H14.599V87.3311Z" fill="#FCF9F9" fill-opacity="0.1"/>
<path d="M243.647 72.7759H229.331V58.2207H243.647V72.7759Z" fill="#FCF9F9" fill-opacity="0.1"/>
<path d="M215.02 72.7759H200.704V58.2207H215.02V72.7759Z" fill="#FCF9F9" fill-opacity="0.1"/>
<path d="M172.073 72.7759H157.757V58.2207H172.073V72.7759Z" fill="#FCF9F9" fill-opacity="0.1"/>
<path d="M157.756 72.7759H143.44V58.2207H157.756V72.7759Z" fill="#FCF9F9" fill-opacity="0.1"/>
<path d="M143.441 72.7759H129.125V58.2207H143.441V72.7759Z" fill="#FCF9F9" fill-opacity="0.1"/>
<path d="M43.2298 72.7759H28.9141V58.2207H43.2298V72.7759Z" fill="#FCF9F9" fill-opacity="0.1"/>
<path d="M28.9144 72.7759H14.5986V58.2207H28.9144V72.7759Z" fill="#FCF9F9" fill-opacity="0.1"/>
<path d="M14.599 72.7759H0.283203V58.2207H14.599V72.7759Z" fill="#FCF9F9" fill-opacity="0.1"/>
<path d="M257.964 58.2207H243.648V43.6655H257.964V58.2207Z" fill="#FCF9F9" fill-opacity="0.1"/>
<path d="M243.647 58.2207H229.331V43.6655H243.647V58.2207Z" fill="#FCF9F9" fill-opacity="0.1"/>
<path d="M215.02 58.2207H200.704V43.6655H215.02V58.2207Z" fill="#FCF9F9" fill-opacity="0.1"/>
<path d="M200.703 58.2207H186.388V43.6655H200.703V58.2207Z" fill="#FCF9F9" fill-opacity="0.1"/>
<path d="M157.756 58.2207H143.44V43.6655H157.756V58.2207Z" fill="#FCF9F9" fill-opacity="0.1"/>
<path d="M143.441 58.2207H129.125V43.6655H143.441V58.2207Z" fill="#FCF9F9" fill-opacity="0.1"/>
<path d="M129.124 58.2207H114.809V43.6655H129.124V58.2207Z" fill="#FCF9F9" fill-opacity="0.1"/>
<path d="M57.5463 58.2207H43.2305V43.6655H57.5463V58.2207Z" fill="#FCF9F9" fill-opacity="0.1"/>
<path d="M43.2298 58.2207H28.9141V43.6655H43.2298V58.2207Z" fill="#FCF9F9" fill-opacity="0.1"/>
<path d="M28.9144 58.2207H14.5986V43.6655H28.9144V58.2207Z" fill="#FCF9F9" fill-opacity="0.1"/>
<path d="M257.964 43.6655H243.648V29.1103H257.964V43.6655Z" fill="#FCF9F9" fill-opacity="0.1"/>
<path d="M243.647 43.6655H229.331V29.1103H243.647V43.6655Z" fill="#FCF9F9" fill-opacity="0.1"/>
<path d="M215.02 43.6655H200.704V29.1103H215.02V43.6655Z" fill="#FCF9F9" fill-opacity="0.1"/>
<path d="M200.703 43.6655H186.388V29.1103H200.703V43.6655Z" fill="#FCF9F9" fill-opacity="0.1"/>
<path d="M186.388 43.6655H172.072V29.1103H186.388V43.6655Z" fill="#FCF9F9" fill-opacity="0.1"/>
<path d="M71.8617 43.6655H57.5459V29.1103H71.8617V43.6655Z" fill="#FCF9F9" fill-opacity="0.1"/>
<path d="M57.5463 43.6655H43.2305V29.1103H57.5463V43.6655Z" fill="#FCF9F9" fill-opacity="0.1"/>
<path d="M43.2298 43.6655H28.9141V29.1103H43.2298V43.6655Z" fill="#FCF9F9" fill-opacity="0.1"/>
<path d="M257.964 29.1104H243.648V14.5552H257.964V29.1104Z" fill="#FCF9F9" fill-opacity="0.1"/>
<path d="M200.703 29.1104H186.388V14.5552H200.703V29.1104Z" fill="#FCF9F9" fill-opacity="0.1"/>
<path d="M186.388 29.1104H172.072V14.5552H186.388V29.1104Z" fill="#FCF9F9" fill-opacity="0.1"/>
<path d="M86.1771 29.1104H71.8613V14.5552H86.1771V29.1104Z" fill="#FCF9F9" fill-opacity="0.1"/>
<path d="M71.8617 29.1104H57.5459V14.5552H71.8617V29.1104Z" fill="#FCF9F9" fill-opacity="0.1"/>
<path d="M57.5463 29.1104H43.2305V14.5552H57.5463V29.1104Z" fill="#FCF9F9" fill-opacity="0.1"/>
<path d="M186.388 14.5552H172.072V-5.72205e-06H186.388V14.5552Z" fill="#FCF9F9" fill-opacity="0.1"/>
<path d="M100.494 14.5552H86.1777V-5.72205e-06H100.494V14.5552Z" fill="#FCF9F9" fill-opacity="0.1"/>
<path d="M86.1771 14.5552H71.8613V-5.72205e-06H86.1771V14.5552Z" fill="#FCF9F9" fill-opacity="0.1"/>
<path d="M71.8617 14.5552H57.5459V-5.72205e-06H71.8617V14.5552Z" fill="#FCF9F9" fill-opacity="0.1"/>
<path d="M14.599 14.5552H0.283203V-5.72205e-06H14.599V14.5552Z" fill="#FCF9F9" fill-opacity="0.1"/>
</g>
<defs>
<clipPath id="clip0_40_2367">
<rect width="459" height="408" fill="white"/>
</clipPath>
</defs>
</svg>
